<svg height="3326" width="720" xmlns="http://www.w3.org/2000/svg">
<rect height="3326" fill="#555" width="720"></rect>
<text fill="#7f7" font-family="Courier New" font-size="12" xml:space="preserve">
<tspan x="10" y="26">23 megabytes installed</tspan>
<tspan x="10" y="42"></tspan>
<tspan x="10" y="58">node_modules</tspan>
<tspan x="10" y="74">└─┬ npm-check@5.4.0 </tspan>
<tspan x="10" y="90">  ├─┬ babel-runtime@6.23.0 </tspan>
<tspan x="10" y="106">  │ ├── core-js@2.4.1 </tspan>
<tspan x="10" y="122">  │ └── regenerator-runtime@0.10.3 </tspan>
<tspan x="10" y="138">  ├─┬ callsite-record@3.2.2 </tspan>
<tspan x="10" y="154">  │ ├── callsite@1.0.0 </tspan>
<tspan x="10" y="170">  │ ├─┬ error-stack-parser@1.3.6 </tspan>
<tspan x="10" y="186">  │ │ └── stackframe@0.3.1 </tspan>
<tspan x="10" y="202">  │ ├─┬ highlight-es@1.0.1 </tspan>
<tspan x="10" y="218">  │ │ ├── is-es2016-keyword@1.0.0 </tspan>
<tspan x="10" y="234">  │ │ └── js-tokens@3.0.1 </tspan>
<tspan x="10" y="250">  │ └─┬ pinkie-promise@2.0.1 </tspan>
<tspan x="10" y="266">  │   └── pinkie@2.0.4 </tspan>
<tspan x="10" y="282">  ├─┬ chalk@1.1.3 </tspan>
<tspan x="10" y="298">  │ ├── ansi-styles@2.2.1 </tspan>
<tspan x="10" y="314">  │ ├── escape-string-regexp@1.0.5 </tspan>
<tspan x="10" y="330">  │ ├── has-ansi@2.0.0 </tspan>
<tspan x="10" y="346">  │ ├── strip-ansi@3.0.1 </tspan>
<tspan x="10" y="362">  │ └── supports-color@2.0.0 </tspan>
<tspan x="10" y="378">  ├── co@4.6.0 </tspan>
<tspan x="10" y="394">  ├─┬ depcheck@0.6.7 </tspan>
<tspan x="10" y="410">  │ ├─┬ babel-traverse@6.24.1 </tspan>
<tspan x="10" y="426">  │ │ ├─┬ babel-code-frame@6.22.0 </tspan>
<tspan x="10" y="442">  │ │ │ └── esutils@2.0.2 </tspan>
<tspan x="10" y="458">  │ │ ├── babel-messages@6.23.0 </tspan>
<tspan x="10" y="474">  │ │ ├─┬ babel-types@6.24.1 </tspan>
<tspan x="10" y="490">  │ │ │ └── to-fast-properties@1.0.2 </tspan>
<tspan x="10" y="506">  │ │ ├─┬ debug@2.6.3 </tspan>
<tspan x="10" y="522">  │ │ │ └── ms@0.7.2 </tspan>
<tspan x="10" y="538">  │ │ ├── globals@9.17.0 </tspan>
<tspan x="10" y="554">  │ │ └─┬ invariant@2.2.2 </tspan>
<tspan x="10" y="570">  │ │   └── loose-envify@1.3.1 </tspan>
<tspan x="10" y="586">  │ ├── babylon@6.16.1 </tspan>
<tspan x="10" y="602">  │ ├── builtin-modules@1.1.1 </tspan>
<tspan x="10" y="618">  │ ├── deprecate@1.0.0 </tspan>
<tspan x="10" y="634">  │ ├── deps-regex@0.1.4 </tspan>
<tspan x="10" y="650">  │ ├─┬ js-yaml@3.8.3 </tspan>
<tspan x="10" y="666">  │ │ ├─┬ argparse@1.0.9 </tspan>
<tspan x="10" y="682">  │ │ │ └── sprintf-js@1.0.3 </tspan>
<tspan x="10" y="698">  │ │ └── esprima@3.1.3 </tspan>
<tspan x="10" y="714">  │ ├── require-package-name@2.0.1 </tspan>
<tspan x="10" y="730">  │ ├── walkdir@0.0.11 </tspan>
<tspan x="10" y="746">  │ └─┬ yargs@6.6.0 </tspan>
<tspan x="10" y="762">  │   ├── camelcase@3.0.0 </tspan>
<tspan x="10" y="778">  │   ├─┬ cliui@3.2.0 </tspan>
<tspan x="10" y="794">  │   │ └── wrap-ansi@2.1.0 </tspan>
<tspan x="10" y="810">  │   ├── get-caller-file@1.0.2 </tspan>
<tspan x="10" y="826">  │   ├─┬ os-locale@1.4.0 </tspan>
<tspan x="10" y="842">  │   │ └─┬ lcid@1.0.0 </tspan>
<tspan x="10" y="858">  │   │   └── invert-kv@1.0.0 </tspan>
<tspan x="10" y="874">  │   ├── require-directory@2.1.1 </tspan>
<tspan x="10" y="890">  │   ├── require-main-filename@1.0.1 </tspan>
<tspan x="10" y="906">  │   ├── set-blocking@2.0.0 </tspan>
<tspan x="10" y="922">  │   ├── which-module@1.0.0 </tspan>
<tspan x="10" y="938">  │   ├── y18n@3.2.1 </tspan>
<tspan x="10" y="954">  │   └── yargs-parser@4.2.1 </tspan>
<tspan x="10" y="970">  ├─┬ execa@0.2.2 </tspan>
<tspan x="10" y="986">  │ ├─┬ cross-spawn-async@2.2.5 </tspan>
<tspan x="10" y="1002">  │ │ ├─┬ lru-cache@4.0.2 </tspan>
<tspan x="10" y="1018">  │ │ │ ├── pseudomap@1.0.2 </tspan>
<tspan x="10" y="1034">  │ │ │ └── yallist@2.1.2 </tspan>
<tspan x="10" y="1050">  │ │ └─┬ which@1.2.14 </tspan>
<tspan x="10" y="1066">  │ │   └── isexe@2.0.0 </tspan>
<tspan x="10" y="1082">  │ ├── npm-run-path@1.0.0 </tspan>
<tspan x="10" y="1098">  │ ├── object-assign@4.1.1 </tspan>
<tspan x="10" y="1114">  │ ├── path-key@1.0.0 </tspan>
<tspan x="10" y="1130">  │ └── strip-eof@1.0.0 </tspan>
<tspan x="10" y="1146">  ├── giturl@1.0.0 </tspan>
<tspan x="10" y="1162">  ├─┬ global-modules@0.2.3 </tspan>
<tspan x="10" y="1178">  │ ├─┬ global-prefix@0.1.5 </tspan>
<tspan x="10" y="1194">  │ │ ├─┬ homedir-polyfill@1.0.1 </tspan>
<tspan x="10" y="1210">  │ │ │ └── parse-passwd@1.0.0 </tspan>
<tspan x="10" y="1226">  │ │ └── ini@1.3.4 </tspan>
<tspan x="10" y="1242">  │ └── is-windows@0.2.0 </tspan>
<tspan x="10" y="1258">  ├─┬ globby@4.1.0 </tspan>
<tspan x="10" y="1274">  │ ├─┬ array-union@1.0.2 </tspan>
<tspan x="10" y="1290">  │ │ └── array-uniq@1.0.3 </tspan>
<tspan x="10" y="1306">  │ ├── arrify@1.0.1 </tspan>
<tspan x="10" y="1322">  │ ├─┬ glob@6.0.4 </tspan>
<tspan x="10" y="1338">  │ │ ├─┬ inflight@1.0.6 </tspan>
<tspan x="10" y="1354">  │ │ │ └── wrappy@1.0.2 </tspan>
<tspan x="10" y="1370">  │ │ ├── inherits@2.0.3 </tspan>
<tspan x="10" y="1386">  │ │ ├── once@1.4.0 </tspan>
<tspan x="10" y="1402">  │ │ └── path-is-absolute@1.0.1 </tspan>
<tspan x="10" y="1418">  │ └── pify@2.3.0 </tspan>
<tspan x="10" y="1434">  ├─┬ inquirer@0.12.0 </tspan>
<tspan x="10" y="1450">  │ ├── ansi-escapes@1.4.0 </tspan>
<tspan x="10" y="1466">  │ ├── ansi-regex@2.1.1 </tspan>
<tspan x="10" y="1482">  │ ├─┬ cli-cursor@1.0.2 </tspan>
<tspan x="10" y="1498">  │ │ └─┬ restore-cursor@1.0.1 </tspan>
<tspan x="10" y="1514">  │ │   ├── exit-hook@1.1.1 </tspan>
<tspan x="10" y="1530">  │ │   └── onetime@1.1.0 </tspan>
<tspan x="10" y="1546">  │ ├── cli-width@2.1.0 </tspan>
<tspan x="10" y="1562">  │ ├── figures@1.7.0 </tspan>
<tspan x="10" y="1578">  │ ├─┬ readline2@1.0.1 </tspan>
<tspan x="10" y="1594">  │ │ ├── code-point-at@1.1.0 </tspan>
<tspan x="10" y="1610">  │ │ ├─┬ is-fullwidth-code-point@1.0.0 </tspan>
<tspan x="10" y="1626">  │ │ │ └── number-is-nan@1.0.1 </tspan>
<tspan x="10" y="1642">  │ │ └── mute-stream@0.0.5 </tspan>
<tspan x="10" y="1658">  │ ├── run-async@0.1.0 </tspan>
<tspan x="10" y="1674">  │ ├── rx-lite@3.1.2 </tspan>
<tspan x="10" y="1690">  │ ├── string-width@1.0.2 </tspan>
<tspan x="10" y="1706">  │ └── through@2.3.8 </tspan>
<tspan x="10" y="1722">  ├─┬ is-ci@1.0.10 </tspan>
<tspan x="10" y="1738">  │ └── ci-info@1.0.0 </tspan>
<tspan x="10" y="1754">  ├── lodash@4.17.4 </tspan>
<tspan x="10" y="1770">  ├─┬ meow@3.7.0 </tspan>
<tspan x="10" y="1786">  │ ├─┬ camelcase-keys@2.1.0 </tspan>
<tspan x="10" y="1802">  │ │ └── camelcase@2.1.1 </tspan>
<tspan x="10" y="1818">  │ ├── decamelize@1.2.0 </tspan>
<tspan x="10" y="1834">  │ ├─┬ loud-rejection@1.6.0 </tspan>
<tspan x="10" y="1850">  │ │ ├─┬ currently-unhandled@0.4.1 </tspan>
<tspan x="10" y="1866">  │ │ │ └── array-find-index@1.0.2 </tspan>
<tspan x="10" y="1882">  │ │ └── signal-exit@3.0.2 </tspan>
<tspan x="10" y="1898">  │ ├── map-obj@1.0.1 </tspan>
<tspan x="10" y="1914">  │ ├── minimist@1.2.0 </tspan>
<tspan x="10" y="1930">  │ ├─┬ normalize-package-data@2.3.6 </tspan>
<tspan x="10" y="1946">  │ │ ├── hosted-git-info@2.4.2 </tspan>
<tspan x="10" y="1962">  │ │ ├── is-builtin-module@1.0.0 </tspan>
<tspan x="10" y="1978">  │ │ └─┬ validate-npm-package-license@3.0.1 </tspan>
<tspan x="10" y="1994">  │ │   ├─┬ spdx-correct@1.0.2 </tspan>
<tspan x="10" y="2010">  │ │   │ └── spdx-license-ids@1.2.2 </tspan>
<tspan x="10" y="2026">  │ │   └── spdx-expression-parse@1.0.4 </tspan>
<tspan x="10" y="2042">  │ ├─┬ read-pkg-up@1.0.1 </tspan>
<tspan x="10" y="2058">  │ │ └─┬ read-pkg@1.1.0 </tspan>
<tspan x="10" y="2074">  │ │   ├─┬ load-json-file@1.1.0 </tspan>
<tspan x="10" y="2090">  │ │   │ └─┬ strip-bom@2.0.0 </tspan>
<tspan x="10" y="2106">  │ │   │   └── is-utf8@0.2.1 </tspan>
<tspan x="10" y="2122">  │ │   └── path-type@1.1.0 </tspan>
<tspan x="10" y="2138">  │ ├─┬ redent@1.0.0 </tspan>
<tspan x="10" y="2154">  │ │ ├── indent-string@2.1.0 </tspan>
<tspan x="10" y="2170">  │ │ └─┬ strip-indent@1.0.1 </tspan>
<tspan x="10" y="2186">  │ │   └── get-stdin@4.0.1 </tspan>
<tspan x="10" y="2202">  │ └── trim-newlines@1.0.0 </tspan>
<tspan x="10" y="2218">  ├─┬ merge-options@0.0.64 </tspan>
<tspan x="10" y="2234">  │ └── is-plain-obj@1.1.0 </tspan>
<tspan x="10" y="2250">  ├─┬ minimatch@3.0.3 </tspan>
<tspan x="10" y="2266">  │ └─┬ brace-expansion@1.1.7 </tspan>
<tspan x="10" y="2282">  │   ├── balanced-match@0.4.2 </tspan>
<tspan x="10" y="2298">  │   └── concat-map@0.0.1 </tspan>
<tspan x="10" y="2314">  ├─┬ node-emoji@1.5.1 </tspan>
<tspan x="10" y="2330">  │ └── string.prototype.codepointat@0.2.0 </tspan>
<tspan x="10" y="2346">  ├─┬ ora@0.2.3 </tspan>
<tspan x="10" y="2362">  │ └── cli-spinners@0.1.2 </tspan>
<tspan x="10" y="2378">  ├─┬ package-json@2.4.0 </tspan>
<tspan x="10" y="2394">  │ ├─┬ got@5.7.1 </tspan>
<tspan x="10" y="2410">  │ │ ├─┬ create-error-class@3.0.2 </tspan>
<tspan x="10" y="2426">  │ │ │ └── capture-stack-trace@1.0.0 </tspan>
<tspan x="10" y="2442">  │ │ ├── duplexer2@0.1.4 </tspan>
<tspan x="10" y="2458">  │ │ ├── is-redirect@1.0.0 </tspan>
<tspan x="10" y="2474">  │ │ ├── is-retry-allowed@1.1.0 </tspan>
<tspan x="10" y="2490">  │ │ ├── is-stream@1.1.0 </tspan>
<tspan x="10" y="2506">  │ │ ├── lowercase-keys@1.0.0 </tspan>
<tspan x="10" y="2522">  │ │ ├── node-status-codes@1.0.0 </tspan>
<tspan x="10" y="2538">  │ │ ├─┬ parse-json@2.2.0 </tspan>
<tspan x="10" y="2554">  │ │ │ └─┬ error-ex@1.3.1 </tspan>
<tspan x="10" y="2570">  │ │ │   └── is-arrayish@0.2.1 </tspan>
<tspan x="10" y="2586">  │ │ ├── read-all-stream@3.1.0 </tspan>
<tspan x="10" y="2602">  │ │ ├─┬ readable-stream@2.2.9 </tspan>
<tspan x="10" y="2618">  │ │ │ ├── buffer-shims@1.0.0 </tspan>
<tspan x="10" y="2634">  │ │ │ ├── core-util-is@1.0.2 </tspan>
<tspan x="10" y="2650">  │ │ │ ├── isarray@1.0.0 </tspan>
<tspan x="10" y="2666">  │ │ │ ├── process-nextick-args@1.0.7 </tspan>
<tspan x="10" y="2682">  │ │ │ ├── string_decoder@1.0.0 </tspan>
<tspan x="10" y="2698">  │ │ │ └── util-deprecate@1.0.2 </tspan>
<tspan x="10" y="2714">  │ │ ├── timed-out@3.1.3 </tspan>
<tspan x="10" y="2730">  │ │ ├── unzip-response@1.0.2 </tspan>
<tspan x="10" y="2746">  │ │ └─┬ url-parse-lax@1.0.0 </tspan>
<tspan x="10" y="2762">  │ │   └── prepend-http@1.0.4 </tspan>
<tspan x="10" y="2778">  │ ├─┬ registry-auth-token@3.1.2 </tspan>
<tspan x="10" y="2794">  │ │ └─┬ rc@1.2.1 </tspan>
<tspan x="10" y="2810">  │ │   ├── deep-extend@0.4.1 </tspan>
<tspan x="10" y="2826">  │ │   └── strip-json-comments@2.0.1 </tspan>
<tspan x="10" y="2842">  │ └── registry-url@3.1.0 </tspan>
<tspan x="10" y="2858">  ├── path-exists@2.1.0 </tspan>
<tspan x="10" y="2874">  ├─┬ pkg-dir@1.0.0 </tspan>
<tspan x="10" y="2890">  │ └── find-up@1.1.2 </tspan>
<tspan x="10" y="2906">  ├── semver@5.3.0 </tspan>
<tspan x="10" y="2922">  ├── semver-diff@2.1.0 </tspan>
<tspan x="10" y="2938">  ├── text-table@0.2.0 </tspan>
<tspan x="10" y="2954">  ├── throat@2.0.2 </tspan>
<tspan x="10" y="2970">  └─┬ update-notifier@0.6.3 </tspan>
<tspan x="10" y="2986">    ├─┬ boxen@0.3.1 </tspan>
<tspan x="10" y="3002">    │ ├── filled-array@1.1.0 </tspan>
<tspan x="10" y="3018">    │ ├─┬ repeating@2.0.1 </tspan>
<tspan x="10" y="3034">    │ │ └── is-finite@1.0.2 </tspan>
<tspan x="10" y="3050">    │ └── widest-line@1.0.0 </tspan>
<tspan x="10" y="3066">    ├─┬ configstore@2.1.0 </tspan>
<tspan x="10" y="3082">    │ ├─┬ dot-prop@3.0.0 </tspan>
<tspan x="10" y="3098">    │ │ └── is-obj@1.0.1 </tspan>
<tspan x="10" y="3114">    │ ├── graceful-fs@4.1.11 </tspan>
<tspan x="10" y="3130">    │ ├─┬ mkdirp@0.5.1 </tspan>
<tspan x="10" y="3146">    │ │ └── minimist@0.0.8 </tspan>
<tspan x="10" y="3162">    │ ├── os-tmpdir@1.0.2 </tspan>
<tspan x="10" y="3178">    │ ├─┬ osenv@0.1.4 </tspan>
<tspan x="10" y="3194">    │ │ └── os-homedir@1.0.2 </tspan>
<tspan x="10" y="3210">    │ ├── uuid@2.0.3 </tspan>
<tspan x="10" y="3226">    │ ├─┬ write-file-atomic@1.3.1 </tspan>
<tspan x="10" y="3242">    │ │ ├── imurmurhash@0.1.4 </tspan>
<tspan x="10" y="3258">    │ │ └── slide@1.1.6 </tspan>
<tspan x="10" y="3274">    │ └── xdg-basedir@2.0.0 </tspan>
<tspan x="10" y="3290">    ├── is-npm@1.0.0 </tspan>
<tspan x="10" y="3306">    └── latest-version@2.0.0</tspan>
</text>
</svg>
